<svg width="38" height="38" viewBox="0 0 38 38" fill="none" xmlns="http://www.w3.org/2000/svg">
<path d="M18.5982 16.7493L12.5029 10.6434C12.4409 10.5813 12.3404 10.5813 12.2784 10.6434L1.1937 21.7472C1.13172 21.8093 1.13172 21.91 1.1937 21.9721L7.28908 28.078C7.35106 28.14 7.45155 28.14 7.51354 28.078L18.5982 16.9742C18.6602 16.9121 18.6602 16.8114 18.5982 16.7493Z" fill="#2F80ED"/>
<path d="M30.6516 28.0468L36.6849 22.0031C36.764 21.9239 36.764 21.7954 36.6849 21.7161L25.6622 10.6745C25.5831 10.5952 25.4548 10.5952 25.3757 10.6745L19.3424 16.7182C19.2633 16.7974 19.2633 16.926 19.3424 17.0052L30.365 28.0468C30.4441 28.1261 30.5724 28.1261 30.6516 28.0468Z" fill="#2F80ED"/>
<path d="M25.005 27.658L19.052 21.6948C19.0017 21.6444 18.9202 21.6444 18.8698 21.6948L12.9169 27.658C12.8666 27.7084 12.8666 27.7901 12.9169 27.8405L18.8698 33.8037C18.9202 33.8541 19.0017 33.8541 19.052 33.8037L25.005 27.8405C25.0553 27.7901 25.0553 27.7084 25.005 27.658Z" fill="#012555"/>
<path d="M25.005 10.1941L19.052 4.2309C19.0017 4.1805 18.9202 4.1805 18.8698 4.2309L12.9169 10.1941C12.8666 10.2445 12.8666 10.3262 12.9169 10.3766L18.8698 16.3398C18.9201 16.3902 19.0017 16.3902 19.052 16.3398L25.005 10.3766C25.0553 10.3262 25.0553 10.2445 25.005 10.1941Z" fill="#012555"/>
</svg>
